<svg width="113" height="33" viewBox="0 0 113 33" fill="none" xmlns="http://www.w3.org/2000/svg">
<path d="M0 12.6697V15.2036H2.41765V12.6697H0Z" fill="black"/>
<path d="M11.4559 4.4555C9.92125 4.4555 8.68089 5.15233 7.90303 6.1659H7.81894V0H5.82175V15.2036H7.81894V9.98792C7.81894 7.89742 9.12237 6.39818 11.0355 6.39818C12.8435 6.39818 13.8946 7.74961 13.8946 9.56559V15.2036H15.8918V9.20662C15.8918 6.31371 14.1048 4.4555 11.4559 4.4555Z" fill="black"/>
<path d="M26.1814 4.75112H21.4512V1.05581H19.4541V4.75112H17.562V6.6938H19.4541V12.5852C19.4541 14.2745 20.4001 15.2036 22.103 15.2036H26.1814V13.2398H22.5024C21.8297 13.2398 21.4512 12.8597 21.4512 12.2051V6.6938H26.1814V4.75112Z" fill="black"/>
<path d="M40.4484 4.47661C38.8506 4.47661 37.6313 5.25791 36.9586 6.50376H36.8955C36.2858 5.27903 35.1506 4.47661 33.5949 4.47661C32.2073 4.47661 31.1562 5.21568 30.5255 6.25037H30.4414V4.75112H28.5283V15.2036H30.5255V9.8401C30.5255 7.87631 31.5556 6.44041 33.1113 6.39818C34.583 6.35595 35.4449 7.41175 35.4449 8.99546V15.2036H37.4421V9.67118C37.4421 7.32729 38.8296 6.39818 40.0279 6.39818C41.4785 6.39818 42.3405 7.41175 42.3405 8.99546V15.2036H44.3377V8.7843C44.3377 6.25037 42.9081 4.47661 40.4484 4.47661Z" fill="black"/>
<path d="M47.0442 12.5007C47.0442 14.2111 48.0113 15.2036 49.7982 15.2036H51.7744V13.2609H50.0926C49.4198 13.2609 49.0414 12.8808 49.0414 12.2262V0H47.0442V12.5007Z" fill="black"/>
<path d="M28.4328 19.3837H28.3486C27.5693 18.3341 26.3057 17.5994 24.6208 17.5784C21.5249 17.5364 19.3135 19.8245 19.3135 23.0573C19.3135 26.3111 21.567 28.5992 24.5997 28.5572C26.3267 28.5362 27.5693 27.7595 28.3486 26.6469H28.4328V28.2633H30.4125V17.8723H28.4328V19.3837ZM24.8946 26.6259C22.7043 26.6259 21.3143 25.0305 21.3143 23.0573C21.3143 21.084 22.7043 19.4886 24.8946 19.4886C27.0217 19.4886 28.4117 21.084 28.4117 23.0573C28.4117 25.0095 27.0217 26.6259 24.8946 26.6259Z" fill="black"/>
<path d="M43.4868 21.6508C43.0024 19.2997 40.9174 17.5784 38.1795 17.5784C34.873 17.5784 32.6616 19.9925 32.6616 23.0573C32.6616 26.1221 34.873 28.5572 38.1795 28.5572C40.9174 28.5572 43.0024 26.7939 43.4868 24.4218H41.4018C40.9806 25.7443 39.738 26.6469 38.2006 26.6469C36.0524 26.6469 34.6624 25.0305 34.6624 23.0573C34.6624 21.084 36.0524 19.4886 38.2006 19.4886C39.8012 19.4886 40.9806 20.4333 41.4018 21.6508H43.4868Z" fill="black"/>
<path d="M54.1829 19.3837H54.0987C53.3194 18.3341 52.0558 17.5994 50.3709 17.5784C47.275 17.5364 45.0636 19.8245 45.0636 23.0573C45.0636 26.3111 47.3171 28.5992 50.3499 28.5572C52.0768 28.5362 53.3194 27.7595 54.0987 26.6469H54.1829V28.2633H56.1626V17.8723H54.1829V19.3837ZM50.6447 26.6259C48.4544 26.6259 47.0644 25.0305 47.0644 23.0573C47.0644 21.084 48.4544 19.4886 50.6447 19.4886C52.7719 19.4886 54.1619 21.084 54.1619 23.0573C54.1619 25.0095 52.7719 26.6259 50.6447 26.6259Z" fill="black"/>
<path d="M67.531 19.4886H67.4468C66.6675 18.3761 65.3618 17.5994 63.698 17.5784C60.6652 17.5364 58.4117 19.8245 58.4117 23.0783C58.4117 26.3111 60.6231 28.5992 63.719 28.5572C65.3618 28.5362 66.6675 27.8015 67.4257 26.7519H67.531V28.2633H69.5107V13.149H67.531V19.4886ZM63.9928 26.6469C61.8025 26.6469 60.4125 25.0515 60.4125 23.0783C60.4125 21.105 61.8025 19.5096 63.9928 19.5096C66.12 19.5096 67.51 21.126 67.51 23.0783C67.51 25.0515 66.12 26.6469 63.9928 26.6469Z" fill="black"/>
<path d="M77.0485 17.5784C73.8473 17.5784 71.657 20.0344 71.657 23.0783C71.657 26.0382 73.7209 28.5572 77.0907 28.5572C79.5337 28.5572 81.4924 27.2347 82.1874 25.0305H80.1024C79.639 26.0172 78.5228 26.6469 77.1749 26.6469C75.2794 26.6469 73.9315 25.3874 73.7841 23.771H82.398C82.6718 20.3073 80.5025 17.5784 77.0485 17.5784ZM77.0064 19.4886C78.6702 19.4886 79.9128 20.5173 80.2287 22.0077H73.8262C74.1211 20.5382 75.3637 19.4886 77.0064 19.4886Z" fill="black"/>
<path d="M96.5921 17.5994C94.9915 17.5994 93.77 18.3761 93.096 19.6146H93.0329C92.4221 18.3971 91.2848 17.5994 89.7263 17.5994C88.3363 17.5994 87.2833 18.3341 86.6514 19.3627H86.5672V17.8723H84.6507V28.2633H86.6514V22.9313C86.6514 20.9791 87.6834 19.5516 89.2419 19.5096C90.7162 19.4677 91.5797 20.5173 91.5797 22.0917V28.2633H93.5804V22.7634C93.5804 20.4333 94.9705 19.5096 96.1709 19.5096C97.6241 19.5096 98.4876 20.5173 98.4876 22.0917V28.2633H100.488V21.8817C100.488 19.3627 99.0563 17.5994 96.5921 17.5994Z" fill="black"/>
<path d="M107.651 26.6049L104.071 17.8723H101.859L106.619 29.2499L106.598 29.2919C106.261 30.1526 105.882 30.4675 104.955 30.4675H102.491V32.4617H104.955C106.766 32.4617 107.735 31.643 108.409 29.8797L113 17.8723H110.958L107.651 26.6049Z" fill="black"/>
</svg>
