<svg width="18" height="14" viewBox="0 0 18 14" fill="none" xmlns="http://www.w3.org/2000/svg">
    <path fill-rule="evenodd" clip-rule="evenodd" d="M0 13C0 12.4477 0.50368 12 1.125 12H16.875C17.4963 12 18 12.4477 18 13C18 13.5523 17.4963 14 16.875 14H1.125C0.50368 14 0 13.5523 0 13Z" fill="#242D39"/>
    <path fill-rule="evenodd" clip-rule="evenodd" d="M4 7C4 6.44772 4.50368 6 5.125 6L16.875 6C17.4963 6 18 6.44772 18 7C18 7.55229 17.4963 8 16.875 8L5.125 8C4.50368 8 4 7.55228 4 7Z" fill="#242D39"/>
    <path fill-rule="evenodd" clip-rule="evenodd" d="M10 1C10 0.447715 10.4477 3.84529e-08 11 8.58868e-08L17 6.01208e-07C17.5523 6.48642e-07 18 0.447716 18 1C18 1.55228 17.5523 2 17 2L11 2C10.4477 2 10 1.55228 10 1Z" fill="#242D39"/>
</svg>      