<svg width="28" height="26" viewBox="0 0 28 26" fill="none" xmlns="http://www.w3.org/2000/svg">
    <path fill-rule="evenodd" clip-rule="evenodd" d="M13.9999 1.79688C9.77412 1.79688 5.53821 2.51113 4.00125 3.93476C2.72606 5.11583 2.30098 7.20233 2.15769 8.52341C2.15769 8.52341 2.13794 8.65396 2.13794 8.71011C2.13794 9.22816 2.58266 9.64365 3.12639 9.64365C3.19063 9.64365 5.56797 9.46157 7.00125 9.34956C7.03574 9.34484 7.0705 9.34021 7.10499 9.33091C7.63881 9.31699 8.0689 8.90612 8.0689 8.39738L8.07369 6.55816C8.07369 5.98869 8.56318 5.53117 9.1662 5.53117H18.8335C19.4366 5.53117 19.9261 5.98863 19.9261 6.55816L19.931 8.39738C19.931 8.90612 20.361 9.31699 20.8948 9.33091C20.9291 9.34026 20.9638 9.34484 20.9987 9.34956C22.4321 9.46151 24.8094 9.64365 24.8734 9.64365C25.4169 9.64365 25.8619 9.22816 25.8619 8.71011C25.8619 8.65396 25.8422 8.52341 25.8422 8.52341C25.6988 7.20233 25.2742 5.11588 23.999 3.93476C22.4615 2.51113 18.2256 1.79688 13.9999 1.79688ZM13.9999 13.9335C12.9076 13.9335 12.0229 14.769 12.0229 15.8006C12.0229 16.8322 12.9076 17.6677 13.9999 17.6677C15.0922 17.6677 15.9768 16.8322 15.9768 15.8006C15.9768 14.769 15.0922 13.9335 13.9999 13.9335ZM12.5171 9.73228V8.56533C12.5171 7.92121 11.9635 7.39839 11.2815 7.39839C10.5996 7.39839 10.046 7.92126 10.046 8.56533V9.73228L3.37826 16.4588C2.9188 16.8837 2.63205 17.4763 2.63205 18.13V20.0018C2.63205 21.0334 3.51682 21.8689 4.60906 21.8689H5.10334V23.036C5.10334 23.6801 5.65702 24.2028 6.33898 24.2028C7.02094 24.2028 7.57457 23.6801 7.57457 23.036V21.8689H20.4252V23.036C20.4252 23.6801 20.9786 24.2028 21.6609 24.2028C22.3428 24.2028 22.8963 23.6801 22.8963 23.036V21.8689H23.3906C24.4829 21.8689 25.3676 21.0334 25.3676 20.0018V18.13C25.3676 17.4762 25.0809 16.8836 24.6214 16.4588L17.9539 9.73228V8.56533C17.9539 7.92121 17.4002 7.39839 16.7182 7.39839C16.0363 7.39839 15.4827 7.92126 15.4827 8.56533V9.73228H12.5171ZM13.9999 12.0663C16.1845 12.0663 17.9539 13.7374 17.9539 15.8006C17.9539 17.8638 16.1845 19.5351 13.9999 19.5351C11.8153 19.5351 10.0459 17.8639 10.0459 15.8006C10.0459 13.7374 11.8153 12.0663 13.9999 12.0663Z" fill="#FFD74B"/>
</svg>
